<svg width="36" height="36" viewBox="0 0 36 36" fill="none" xmlns="http://www.w3.org/2000/svg">
<path d="M9.27979 2.5H22.8853L31.4995 10.6074V32.3926C31.4995 33.0074 31.006 33.4999 30.4038 33.5H9.27979C8.67751 33.5 8.18311 33.0075 8.18311 32.3926V3.60742C8.18321 2.99248 8.67769 2.5 9.27979 2.5Z" fill="white" stroke="#A6A6A6"/>
<path d="M4.36523 29.1231L7.68317 31.5307L7.66545 28.7529L4.36523 29.1231Z" fill="#176486"/>
<path d="M4.89076 16.5991H25.3161C25.8075 16.5991 26.2069 17.0661 26.2069 17.6418V28.209C26.2069 28.7842 25.8079 29.2517 25.3161 29.2517H4.89076C4.39934 29.2517 4 28.7847 4 28.209V17.6418C4 17.0666 4.39898 16.5991 4.89076 16.5991Z" fill="#43A0C9"/>
<path d="M32.0002 10.3931V10.6416H24.0563C23.45 10.6416 22.958 10.1463 22.958 9.5355V2H23.0834L32.0002 10.3931Z" fill="#A6A6A6"/>
<path d="M20.5152 7.83984H10.2021V9.15168H20.5152V7.83984Z" fill="#E6E6E6"/>
<path d="M20.5152 10.2214H10.2021V11.5333H20.5152V10.2214Z" fill="#E6E6E6"/>
<path d="M20.5152 12.6033H10.2021V13.9151H20.5152V12.6033Z" fill="#E6E6E6"/>
<path d="M8.90527 19.9902H10.1421V24.1821C10.1421 25.3484 9.31616 26.083 8.1084 26.083C7.021 26.083 6.17017 25.5103 6.17432 24.3232H7.41943C7.42773 24.8005 7.71826 25.0786 8.1665 25.0786C8.6438 25.0786 8.90527 24.7715 8.90527 24.1821V19.9902ZM11.1548 26V19.9902H13.5122C14.8777 19.9902 15.6621 20.8328 15.6621 22.0156C15.6621 23.2151 14.8652 24.041 13.479 24.041H12.3999V26H11.1548ZM12.3999 23.0366H13.2798C14.0186 23.0366 14.3796 22.6216 14.3755 22.0156C14.3796 21.418 14.0186 21.0154 13.2798 21.0112H12.3999V23.0366ZM20.4434 21.9243C20.2732 21.3599 19.8208 21.0154 19.165 21.0112C18.2354 21.0154 17.6045 21.7251 17.6045 22.9868C17.6045 24.2568 18.2146 24.9749 19.1733 24.979C20.0325 24.9749 20.543 24.4893 20.5596 23.7339H19.2563V22.7959H21.7632V23.543C21.7632 25.1201 20.6799 26.083 19.165 26.083C17.48 26.083 16.3345 24.9043 16.3345 23.0034C16.3345 21.0527 17.5547 19.9072 19.1401 19.9072C20.4973 19.9072 21.5391 20.7415 21.7051 21.9243H20.4434Z" fill="white"/>
</svg>
