<svg width="36" height="36" viewBox="0 0 36 36" fill="none" xmlns="http://www.w3.org/2000/svg">
<path d="M9.27979 2.5H22.8853L31.4995 10.6074V32.3926C31.4995 33.0074 31.006 33.4999 30.4038 33.5H9.27979C8.67751 33.5 8.18311 33.0075 8.18311 32.3926V3.60742C8.18321 2.99248 8.67769 2.5 9.27979 2.5Z" fill="white" stroke="#A6A6A6"/>
<path d="M4.36523 29.1231L7.68317 31.5307L7.66545 28.7529L4.36523 29.1231Z" fill="#3E1C87"/>
<path d="M4.89076 16.5991H25.3161C25.8075 16.5991 26.2069 17.0661 26.2069 17.6418V28.209C26.2069 28.7842 25.8079 29.2517 25.3161 29.2517H4.89076C4.39934 29.2517 4 28.7847 4 28.209V17.6418C4 17.0666 4.39898 16.5991 4.89076 16.5991Z" fill="#8548CF"/>
<path d="M32.0002 10.3931V10.6416H24.0563C23.45 10.6416 22.958 10.1463 22.958 9.5355V2H23.0834L32.0002 10.3931Z" fill="#A6A6A6"/>
<path d="M20.5152 7.83984H10.2021V9.15168H20.5152V7.83984Z" fill="#E6E6E6"/>
<path d="M20.5152 10.2214H10.2021V11.5333H20.5152V10.2214Z" fill="#E6E6E6"/>
<path d="M20.5152 12.6033H10.2021V13.9151H20.5152V12.6033Z" fill="#E6E6E6"/>
<path d="M6.50635 26V19.9902H7.75146V22.4805H10.3579V19.9902H11.6113V26H10.3579V23.5098H7.75146V26H6.50635ZM13.9688 26L12.2505 19.9902H13.6118L14.6245 24.1904H14.6743L15.7783 19.9902H16.9487L18.0527 24.1987H18.1025L19.1152 19.9902H20.4766L18.7583 26H17.5381L16.3926 22.0322H16.3428L15.189 26H13.9688ZM21.1157 26V19.9902H23.4731C24.8428 19.9902 25.623 20.8286 25.623 22.0156C25.623 23.2192 24.8262 24.041 23.4399 24.041H22.3608V26H21.1157ZM22.3608 23.0366H23.2407C23.9795 23.0366 24.3364 22.6216 24.3364 22.0156C24.3364 21.418 23.9795 21.0112 23.2407 21.0112H22.3608V23.0366Z" fill="white"/>
</svg>
