<svg width="36" height="36" viewBox="0 0 36 36" fill="none" xmlns="http://www.w3.org/2000/svg">
<path d="M9.27979 2.5H22.8853L31.4995 10.6074V32.3926C31.4995 33.0074 31.006 33.4999 30.4038 33.5H9.27979C8.67751 33.5 8.18311 33.0075 8.18311 32.3926V3.60742C8.18321 2.99248 8.67769 2.5 9.27979 2.5Z" fill="white" stroke="#A6A6A6"/>
<path d="M4.36523 29.1231L7.68317 31.5307L7.66545 28.7529L4.36523 29.1231Z" fill="#163A44"/>
<path d="M4.89076 16.5991H25.3161C25.8075 16.5991 26.2069 17.0661 26.2069 17.6418V28.209C26.2069 28.7842 25.8079 29.2517 25.3161 29.2517H4.89076C4.39934 29.2517 4 28.7847 4 28.209V17.6418C4 17.0666 4.39898 16.5991 4.89076 16.5991Z" fill="#386B7A"/>
<path d="M32.0002 10.3931V10.6416H24.0563C23.45 10.6416 22.958 10.1463 22.958 9.5355V2H23.0834L32.0002 10.3931Z" fill="#A6A6A6"/>
<path d="M20.5152 7.83984H10.2021V9.15168H20.5152V7.83984Z" fill="#E6E6E6"/>
<path d="M20.5152 10.2214H10.2021V11.5333H20.5152V10.2214Z" fill="#E6E6E6"/>
<path d="M20.5152 12.6033H10.2021V13.9151H20.5152V12.6033Z" fill="#E6E6E6"/>
<path d="M7.43164 26V25.2529L10.4448 21.0195H7.42334V19.9902H12.0054V20.7373L9.00049 24.9707H12.0137V26H7.43164ZM14.1968 19.9902V26H12.9517V19.9902H14.1968ZM15.2095 26V19.9902H17.5669C18.9324 19.9902 19.7168 20.8328 19.7168 22.0156C19.7168 23.2151 18.9199 24.041 17.5337 24.041H16.4546V26H15.2095ZM16.4546 23.0366H17.3345C18.0732 23.0366 18.4343 22.6216 18.4302 22.0156C18.4343 21.418 18.0732 21.0154 17.3345 21.0112H16.4546V23.0366Z" fill="white"/>
</svg>
