<svg width="36" height="36" viewBox="0 0 36 36" fill="none" xmlns="http://www.w3.org/2000/svg">
<path d="M9.27979 2.5H22.8853L31.4995 10.6074V32.3926C31.4995 33.0074 31.006 33.4999 30.4038 33.5H9.27979C8.67751 33.5 8.18311 33.0075 8.18311 32.3926V3.60742C8.18321 2.99248 8.67769 2.5 9.27979 2.5Z" fill="white" stroke="#A6A6A6"/>
<path d="M4.36523 29.1231L7.68317 31.5307L7.66545 28.7529L4.36523 29.1231Z" fill="#3E1C87"/>
<path d="M4.89076 16.5991H25.3161C25.8075 16.5991 26.2069 17.0661 26.2069 17.6418V28.209C26.2069 28.7842 25.8079 29.2517 25.3161 29.2517H4.89076C4.39934 29.2517 4 28.7847 4 28.209V17.6418C4 17.0666 4.39898 16.5991 4.89076 16.5991Z" fill="#613AB5"/>
<path d="M32.0002 10.3931V10.6416H24.0563C23.45 10.6416 22.958 10.1463 22.958 9.5355V2H23.0834L32.0002 10.3931Z" fill="#A6A6A6"/>
<path d="M20.5152 7.83984H10.2021V9.15168H20.5152V7.83984Z" fill="#E6E6E6"/>
<path d="M20.5152 10.2214H10.2021V11.5333H20.5152V10.2214Z" fill="#E6E6E6"/>
<path d="M20.5152 12.6033H10.2021V13.9151H20.5152V12.6033Z" fill="#E6E6E6"/>
<path d="M6.50635 26V19.9902H8.86377C10.2292 19.9902 11.0137 20.8328 11.0137 22.0156C11.0137 23.2151 10.2168 24.041 8.83057 24.041H7.75146V26H6.50635ZM7.75146 23.0366H8.63135C9.37012 23.0366 9.7312 22.6216 9.72705 22.0156C9.7312 21.418 9.37012 21.0154 8.63135 21.0112H7.75146V23.0366ZM16.8159 19.9902V26H15.7368L13.0972 22.1816H13.0474V26H11.8022V19.9902H12.8979L15.521 23.8086H15.5791V19.9902H16.8159ZM21.8213 21.9243C21.6511 21.3599 21.1987 21.0154 20.543 21.0112C19.6133 21.0154 18.9824 21.7251 18.9824 22.9868C18.9824 24.2568 19.5925 24.9749 20.5513 24.979C21.4104 24.9749 21.9209 24.4893 21.9375 23.7339H20.6343V22.7959H23.1411V23.543C23.1411 25.1201 22.0579 26.083 20.543 26.083C18.8579 26.083 17.7124 24.9043 17.7124 23.0034C17.7124 21.0527 18.9326 19.9072 20.5181 19.9072C21.8752 19.9072 22.917 20.7415 23.083 21.9243H21.8213Z" fill="white"/>
</svg>
