<svg width="60" height="60" viewBox="0 0 60 60" fill="none" xmlns="http://www.w3.org/2000/svg">
<path d="M28.9725 7.5C28.9725 7.00272 28.775 6.52581 28.4233 6.17417C28.0717 5.82254 27.5948 5.625 27.0975 5.625C26.6002 5.625 26.1233 5.82254 25.7717 6.17417C25.42 6.52581 25.2225 7.00272 25.2225 7.5V12.445C25.2225 12.9423 25.42 13.4192 25.7717 13.7708C26.1233 14.1225 26.6002 14.32 27.0975 14.32C27.5948 14.32 28.0717 14.1225 28.4233 13.7708C28.775 13.4192 28.9725 12.9423 28.9725 12.445V7.5ZM14.9575 12.3625C14.6057 12.0187 14.1329 11.8268 13.6411 11.8284C13.1492 11.8299 12.6776 12.0247 12.3279 12.3707C11.9783 12.7167 11.7787 13.1862 11.772 13.6781C11.7654 14.1699 11.9523 14.6447 12.2925 15L15.9675 18.7075C16.1364 18.8985 16.3426 19.0531 16.5733 19.1618C16.804 19.2704 17.0544 19.3308 17.3093 19.3394C17.5642 19.3479 17.8181 19.3044 18.0556 19.2114C18.293 19.1185 18.5091 18.9781 18.6904 18.7988C18.8717 18.6195 19.0146 18.4051 19.1102 18.1687C19.2059 17.9323 19.2523 17.6788 19.2466 17.4239C19.241 17.1689 19.1834 16.9178 19.0774 16.6859C18.9713 16.4539 18.8191 16.2461 18.63 16.075L14.9575 12.3625ZM41.9025 15C42.2322 14.643 42.4104 14.172 42.3997 13.6862C42.3889 13.2004 42.1899 12.7377 41.8447 12.3958C41.4995 12.0538 41.0349 11.8592 40.5491 11.853C40.0632 11.8468 39.5938 12.0294 39.24 12.3625L35.565 16.0725C35.3817 16.245 35.235 16.4527 35.1337 16.6832C35.0324 16.9137 34.9785 17.1622 34.9753 17.4139C34.9721 17.6656 35.0196 17.9154 35.115 18.1484C35.2104 18.3813 35.3517 18.5927 35.5306 18.7699C35.7094 18.9471 35.9221 19.0864 36.156 19.1796C36.3898 19.2728 36.6401 19.3179 36.8917 19.3124C37.1434 19.3068 37.3914 19.2506 37.6209 19.1471C37.8504 19.0436 38.0567 18.8949 38.2275 18.71L41.9025 15ZM29.5 25.24C26.9375 24.23 24.515 26.7825 25.475 29.265L34.4275 52.39C35.4525 55.035 39.18 55.0375 40.205 52.39L43.64 43.5325L52.41 40.07C55.03 39.035 55.03 35.3125 52.41 34.2775L29.5 25.24ZM12.4 25.4075H7.5C7.00272 25.4075 6.52581 25.605 6.17417 25.9567C5.82254 26.3083 5.625 26.7852 5.625 27.2825C5.625 27.7798 5.82254 28.2567 6.17417 28.6083C6.52581 28.96 7.00272 29.1575 7.5 29.1575H12.4C12.8973 29.1575 13.3742 28.96 13.7258 28.6083C14.0775 28.2567 14.275 27.7798 14.275 27.2825C14.275 26.7852 14.0775 26.3083 13.7258 25.9567C13.3742 25.605 12.8973 25.4075 12.4 25.4075ZM18.63 38.4925C18.9703 38.1375 19.1576 37.663 19.1514 37.1712C19.1451 36.6794 18.9459 36.2098 18.5967 35.8635C18.2475 35.5172 17.7761 35.322 17.2843 35.32C16.7925 35.3179 16.3196 35.5092 15.9675 35.8525L12.2925 39.5625C12.1192 39.7375 11.982 39.9449 11.8888 40.1729C11.7956 40.4009 11.7482 40.645 11.7494 40.8913C11.7506 41.1376 11.8002 41.3813 11.8956 41.6084C11.9909 41.8355 12.13 42.0417 12.305 42.215C12.48 42.3883 12.6874 42.5255 12.9154 42.6187C13.1434 42.7119 13.3875 42.7593 13.6338 42.7581C13.8801 42.7569 14.1238 42.7073 14.3509 42.6119C14.578 42.5166 14.7842 42.3775 14.9575 42.2025L18.63 38.4925Z" fill="white"/>
</svg>
