<svg width="24" height="24" viewBox="0 0 24 24" fill="none" xmlns="http://www.w3.org/2000/svg">
<path d="M14.8243 2.945C13.2843 4.09559 11.5084 4.89034 9.62431 5.272L4.31831 6.333C3.87689 6.42118 3.47957 6.65936 3.19377 7.00714C2.90796 7.35491 2.75128 7.79085 2.75031 8.241V12.837C2.74217 13.2938 2.8947 13.739 3.18127 14.0948C3.46784 14.4507 3.87026 14.6946 4.31831 14.784L9.62431 15.846C11.5043 16.216 13.2803 16.998 14.8243 18.134C14.969 18.2424 15.141 18.3084 15.3211 18.3246C15.5012 18.3408 15.6822 18.3065 15.8439 18.2257C16.0056 18.1448 16.1416 18.0205 16.2367 17.8668C16.3318 17.713 16.3822 17.5358 16.3823 17.355V3.724C16.3824 3.54311 16.3321 3.36578 16.2371 3.21186C16.1421 3.05794 16.0061 2.93353 15.8443 2.85255C15.6826 2.77157 15.5015 2.73724 15.3213 2.75339C15.1412 2.76954 14.9691 2.83654 14.8243 2.945Z" stroke="#333333" stroke-width="1.5" stroke-linecap="round" stroke-linejoin="round"/>
<path d="M8.40575 15.563L10.0418 19.935C10.0969 20.0817 10.1157 20.2396 10.0966 20.3952C10.0776 20.5508 10.0212 20.6995 9.93237 20.8286C9.8435 20.9578 9.72475 21.0635 9.58623 21.1369C9.4477 21.2102 9.2935 21.249 9.13675 21.25H7.99675C7.59901 21.2508 7.21054 21.1299 6.88344 20.9037C6.55634 20.6774 6.30627 20.3565 6.16675 19.984L4.21875 14.707M12.4858 7.61799V13.46M18.5228 6.40099L21.0538 4.94099M18.5228 14.677L21.0538 16.137M18.3278 10.54H21.2488" stroke="#333333" stroke-width="1.5" stroke-linecap="round" stroke-linejoin="round"/>
</svg>
