<svg width="36" height="36" viewBox="0 0 36 36" fill="none" xmlns="http://www.w3.org/2000/svg">
<path d="M9.27979 2.5H22.8853L31.4995 10.6074V32.3926C31.4995 33.0074 31.006 33.4999 30.4038 33.5H9.27979C8.67751 33.5 8.18311 33.0075 8.18311 32.3926V3.60742C8.18321 2.99248 8.67769 2.5 9.27979 2.5Z" fill="white" stroke="#A6A6A6"/>
<path d="M4.36523 29.1231L7.68317 31.5307L7.66545 28.7529L4.36523 29.1231Z" fill="#00416C"/>
<path d="M4.89076 16.5991H25.3161C25.8075 16.5991 26.2069 17.0661 26.2069 17.6418V28.209C26.2069 28.7842 25.8079 29.2517 25.3161 29.2517H4.89076C4.39934 29.2517 4 28.7847 4 28.209V17.6418C4 17.0666 4.39898 16.5991 4.89076 16.5991Z" fill="#027BCB"/>
<path d="M32.0002 10.3931V10.6416H24.0563C23.45 10.6416 22.958 10.1463 22.958 9.5355V2H23.0834L32.0002 10.3931Z" fill="#A6A6A6"/>
<path d="M20.5152 7.83984H10.2021V9.15168H20.5152V7.83984Z" fill="#E6E6E6"/>
<path d="M20.5152 10.2214H10.2021V11.5333H20.5152V10.2214Z" fill="#E6E6E6"/>
<path d="M20.5152 12.6033H10.2021V13.9151H20.5152V12.6033Z" fill="#E6E6E6"/>
<path d="M8.62305 26H6.50635V19.9902H8.64795C10.4575 19.9902 11.5657 21.115 11.5615 22.9868C11.5657 24.8669 10.4575 26 8.62305 26ZM7.75146 24.9292H8.57324C9.71875 24.9292 10.3164 24.3357 10.3164 22.9868C10.3164 21.6504 9.71875 21.061 8.58154 21.061H7.75146V24.9292ZM17.9697 22.9951C17.9697 24.9583 16.7537 26.083 15.1641 26.083C13.562 26.083 12.3501 24.95 12.3501 22.9951C12.3501 21.032 13.562 19.9072 15.1641 19.9072C16.7537 19.9072 17.9697 21.032 17.9697 22.9951ZM13.6201 22.9951C13.6201 24.2776 14.2302 24.9749 15.1641 24.979C16.0896 24.9749 16.7039 24.2776 16.6997 22.9951C16.7039 21.7085 16.0896 21.0154 15.1641 21.0112C14.2302 21.0154 13.6201 21.7085 13.6201 22.9951ZM22.8838 22.082C22.7842 21.418 22.2737 21.0154 21.5723 21.0112C20.6384 21.0154 20.02 21.7292 20.02 22.9951C20.02 24.29 20.6467 24.9749 21.564 24.979C22.2488 24.9749 22.7634 24.6013 22.8838 23.9497L24.1455 23.958C24.0085 25.0703 23.0747 26.083 21.5474 26.083C19.9412 26.083 18.75 24.95 18.75 22.9951C18.75 21.032 19.9619 19.9072 21.5474 19.9072C22.9336 19.9072 23.9795 20.7 24.1455 22.082H22.8838Z" fill="white"/>
</svg>
